<?xml version="1.0" encoding="UTF-8" standalone="no"?>
<!DOCTYPE svg PUBLIC "-//W3C//DTD SVG 1.1//EN" "http://www.w3.org/Graphics/SVG/1.1/DTD/svg11.dtd">
<!-- Created with Vectornator (http://vectornator.io/) -->
<svg height="100%" stroke-miterlimit="10" style="fill-rule:nonzero;clip-rule:evenodd;stroke-linecap:round;stroke-linejoin:round;" version="1.1" viewBox="30.1394 50.0288 739.721 699.942" width="100%" xml:space="preserve" xmlns="http://www.w3.org/2000/svg" xmlns:vectornator="http://vectornator.io" xmlns:xlink="http://www.w3.org/1999/xlink">
<defs/>
<clipPath id="ArtboardFrame">
<rect height="699.942" width="739.721" x="30.1394" y="50.0288"/>
</clipPath>
<g clip-path="url(#ArtboardFrame)" id="Layer" vectornator:layerName="Layer">
<g opacity="1" vectornator:layerName="Grouper 1">
<g opacity="1" vectornator:layerName="Grouper 1">
<path d="M383.442 54.9805C380.2 58.2504 379.027 167.113 379.924 381.567C380.821 596.022 383.369 704.869 387.57 708.107C389.67 709.727 391.77 711.346 393.87 712.966C393.644 603.179 393.417 493.392 393.191 383.605C392.737 164.032 391.81 53.5499 390.409 52.1601C389.708 51.4652 389.007 50.7704 388.307 50.0755C386.685 51.7105 385.064 53.3455 383.442 54.9805Z" fill="#2e6777" fill-rule="nonzero" opacity="1" stroke="none" vectornator:layerName="Courbe 1"/>
<path d="M400.799 367.524C401.684 579.187 402.379 689.67 402.883 698.972C403.387 708.274 404.337 712.922 405.733 712.916C407.128 712.91 409.213 710.808 411.987 706.61C414.76 702.411 415.699 593.085 414.802 378.63C413.905 164.176 411.125 55.7951 406.464 53.4886C404.133 52.3353 401.802 51.1821 399.471 50.0288C399.914 155.86 400.357 261.692 400.799 367.524Z" fill="#6b7e6b" fill-rule="nonzero" opacity="1" stroke="none" vectornator:layerName="Courbe 2"/>
<path d="M422.439 369.527C422.811 569.562 425.093 670.269 429.286 671.647C431.382 672.336 433.478 673.025 435.574 673.714C435.647 579.743 435.719 485.772 435.791 391.801C435.935 203.858 434.589 104.543 431.753 93.8554C428.918 83.1676 426.563 76.432 424.691 73.6486C423.755 72.2569 422.818 70.8653 421.882 69.4736C422.068 169.491 422.254 269.509 422.439 369.527Z" fill="#8daca6" fill-rule="nonzero" opacity="1" stroke="none" vectornator:layerName="Courbe 3"/>
<path d="M363.355 90.6525C359.684 102.763 358.182 188.367 358.847 347.463C359.512 506.56 360.316 587.501 361.258 590.289C362.2 593.076 362.213 596.1 361.296 599.36C360.379 602.62 359.971 616.113 360.07 639.838C360.12 651.7 360.169 663.563 360.219 675.425C362.31 674.951 364.402 674.477 366.493 674.003C370.676 673.055 372.585 573.261 372.219 374.621C371.853 175.982 371.202 75.9658 370.266 74.5741C369.798 73.8782 369.33 73.1824 368.862 72.4865C367.026 78.5418 365.191 84.5972 363.355 90.6525Z" fill="#2e6777" fill-rule="nonzero" opacity="1" stroke="none" vectornator:layerName="Courbe 4"/>
<path d="M256.567 251.594C254.71 252.532 253.911 283.937 254.17 345.807C254.299 376.743 254.428 407.678 254.558 438.614C256.88 437.674 259.202 436.734 261.524 435.793C266.168 433.913 268.364 402.735 268.111 342.26C267.858 281.785 266.335 251.321 263.542 250.867C260.749 250.413 258.424 250.656 256.567 251.594Z" fill="#224767" fill-rule="nonzero" opacity="1" stroke="none" vectornator:layerName="Courbe 7"/>
<path d="M280.991 251.916C277.737 252.395 275.884 254.263 275.432 257.522C274.981 260.78 275.105 290.552 275.806 346.839C276.156 374.982 276.506 403.125 276.857 431.269C278.946 430.33 281.036 429.39 283.125 428.451C287.304 426.573 289.273 396.792 289.032 339.108C288.79 281.424 288.204 252.351 287.271 251.89C286.339 251.428 284.246 251.437 280.991 251.916Z" fill="#224767" fill-rule="nonzero" opacity="1" stroke="none" vectornator:layerName="Courbe 8"/>
<path d="M509.867 250.959C506.612 251.437 505.105 280.286 505.344 337.505C505.583 394.724 507.799 424.023 511.992 425.401C514.088 426.09 516.185 426.779 518.281 427.468C518.391 398.159 518.501 368.851 518.611 339.543C518.831 280.927 518.242 251.389 516.845 250.929C515.447 250.47 513.121 250.48 509.867 250.959Z" fill="#8daca6" fill-rule="nonzero" opacity="1" stroke="none" vectornator:layerName="Courbe 9"/>
<path d="M525.593 340.485C525.379 400.497 527.368 431.192 531.561 432.571C533.657 433.26 535.753 433.949 537.849 434.638C538.196 406.259 538.542 377.88 538.889 349.501C539.582 292.744 539.687 262.272 539.204 258.088C538.722 253.903 536.386 251.587 532.197 251.139C530.103 250.915 528.009 250.691 525.914 250.467C525.807 280.473 525.7 310.479 525.593 340.485Z" fill="#8daca6" fill-rule="nonzero" opacity="1" stroke="none" vectornator:layerName="Courbe 11"/>
<path d="M297.405 339.073C297.059 367.451 296.712 395.83 296.366 424.209C298.456 423.503 300.547 422.796 302.637 422.089C306.818 420.676 309.126 416.48 309.562 409.5C309.998 402.52 309.889 376.237 309.233 330.65C308.577 285.062 306.615 260.88 303.347 258.103C301.713 256.714 300.079 255.325 298.445 253.936C298.098 282.315 297.752 310.694 297.405 339.073Z" fill="#224767" fill-rule="nonzero" opacity="1" stroke="none" vectornator:layerName="Courbe 12"/>
<path d="M443.249 339.858C442.956 380.797 444.905 401.956 449.097 403.334C451.194 404.023 453.29 404.712 455.386 405.401C455.304 385.63 455.221 365.86 455.138 346.089C454.973 306.547 453.024 285.389 449.29 282.613C447.424 281.225 445.557 279.837 443.69 278.45C443.543 298.919 443.396 319.389 443.249 339.858Z" fill="#8daca6" fill-rule="nonzero" opacity="1" stroke="none" vectornator:layerName="Courbe 14"/>
<path d="M343.249 288.639C339.539 291.446 337.764 311.922 337.924 350.068C338.004 369.141 338.083 388.214 338.163 407.287C340.254 406.58 342.344 405.874 344.435 405.167C348.615 403.754 350.859 383.974 351.164 345.826C351.47 307.678 351.155 287.908 350.218 286.517C349.75 285.821 349.282 285.125 348.814 284.429C346.959 285.832 345.104 287.236 343.249 288.639Z" fill="#2e6777" fill-rule="nonzero" opacity="1" stroke="none" vectornator:layerName="Courbe 16"/>
<path d="M630.734 286.041C628.881 287.91 628.251 304.194 628.844 334.895C629.438 365.596 631.598 381.404 635.323 382.319C637.186 382.776 639.049 383.234 640.911 383.691C641.077 367.641 641.242 351.591 641.408 335.54C641.739 303.44 640.506 286.698 637.709 285.314C634.912 283.93 632.587 284.172 630.734 286.041Z" fill="#9cada6" fill-rule="nonzero" opacity="1" stroke="none" vectornator:layerName="Courbe 17"/>
<path d="M462.828 349.546C462.523 387.694 464.7 407.688 469.36 409.529C471.689 410.45 474.019 411.371 476.349 412.291C476.505 393.915 476.661 375.539 476.816 357.163C477.128 320.411 474.951 300.416 470.285 297.179C467.953 295.561 465.62 293.942 463.287 292.324C463.134 311.398 462.981 330.472 462.828 349.546Z" fill="#8daca6" fill-rule="nonzero" opacity="1" stroke="none" vectornator:layerName="Courbe 18"/>
<path d="M216.307 302.428C214.456 304.762 214.029 314.068 215.028 330.346C215.527 338.485 216.026 346.624 216.526 354.763C217.687 354.293 218.848 353.823 220.009 353.352C222.331 352.412 223.952 350.777 224.873 348.448C225.794 346.118 226.457 337.974 226.864 324.016C227.271 310.058 226.076 302.387 223.279 301.004C220.482 299.62 218.158 300.095 216.307 302.428Z" fill="#565d6c" fill-rule="nonzero" opacity="1" stroke="none" vectornator:layerName="Courbe 19"/>
<path d="M322.377 303.38C318.669 306.652 316.89 326.198 317.04 362.018C317.115 379.928 317.19 397.838 317.264 415.748C319.354 414.809 321.443 413.87 323.533 412.931C327.712 411.052 329.491 391.506 328.87 354.293C328.56 335.686 328.249 317.079 327.939 298.472C326.085 300.108 324.231 301.744 322.377 303.38Z" fill="#2e6777" fill-rule="nonzero" opacity="1" stroke="none" vectornator:layerName="Courbe 20"/>
<path d="M484.51 361.318C484.663 398.068 486.837 417.132 491.029 418.51C493.125 419.199 495.222 419.888 497.318 420.577C497.242 402.435 497.166 384.292 497.09 366.15C496.939 329.864 494.765 310.8 490.571 308.957C488.474 308.035 486.376 307.114 484.279 306.192C484.356 324.567 484.433 342.942 484.51 361.318Z" fill="#8daca6" fill-rule="nonzero" opacity="1" stroke="none" vectornator:layerName="Courbe 21"/>
<path d="M568.055 315.611C567.128 316.545 566.682 320.966 566.715 328.875C566.748 336.783 568.396 341.661 571.661 343.508C573.293 344.432 574.925 345.355 576.557 346.279C576.769 341.393 576.981 336.508 577.193 331.622C577.618 321.851 576.432 316.506 573.637 315.588C570.842 314.669 568.981 314.677 568.055 315.611Z" fill="#8daca6" fill-rule="nonzero" opacity="1" stroke="none" vectornator:layerName="Courbe 22"/>
<path d="M132.651 321.619C131.724 322.553 131.55 336.51 132.128 363.489C132.417 376.979 132.706 390.469 132.995 403.958C134.852 403.02 136.709 402.082 138.566 401.144C142.279 399.267 144.085 386.002 143.982 361.346C143.878 336.691 143.359 323.668 142.423 322.276C141.486 320.884 139.855 320.193 137.529 320.203C135.203 320.213 133.577 320.685 132.651 321.619Z" fill="#565d6c" fill-rule="nonzero" opacity="1" stroke="none" vectornator:layerName="Courbe 23"/>
<path d="M175.341 351.446C175.147 360.518 174.952 369.59 174.757 378.663C175.455 378.66 176.153 378.657 176.851 378.654C178.246 378.648 179.873 378.176 181.729 377.238C183.586 376.3 184.714 367.921 185.113 352.103C185.512 336.284 185.244 327.679 184.308 326.287C183.371 324.896 181.74 324.205 179.414 324.215C177.088 324.224 175.731 333.301 175.341 351.446Z" fill="#565d6c" fill-rule="nonzero" opacity="1" stroke="none" vectornator:layerName="Courbe 24"/>
<path d="M609.265 325.208C607.878 327.074 607.444 334.519 607.963 347.543C608.483 360.566 610.375 368.002 613.639 369.849C615.271 370.773 616.903 371.696 618.535 372.62C618.735 364.71 618.934 356.801 619.134 348.892C619.533 333.073 618.335 324.705 615.54 323.786C612.745 322.867 610.653 323.341 609.265 325.208Z" fill="#9cada6" fill-rule="nonzero" opacity="1" stroke="none" vectornator:layerName="Courbe 25"/>
<path d="M650.429 323.64C649.503 324.574 649.078 334.345 649.156 352.953C649.234 371.561 649.512 382.492 649.991 385.746C650.47 389.001 652.341 391.319 655.603 392.701C657.234 393.392 658.865 394.083 660.496 394.774C660.68 383.143 660.864 371.512 661.048 359.881C661.416 336.62 661.365 324.525 660.896 323.596C660.427 322.668 658.797 322.209 656.006 322.221C653.215 322.233 651.356 322.706 650.429 323.64Z" fill="#9cada6" fill-rule="nonzero" opacity="1" stroke="none" vectornator:layerName="Courbe 26"/>
<path d="M195.487 329.73C194.56 330.664 194.355 337.178 194.871 349.271C195.129 355.317 195.387 361.364 195.644 367.41C197.27 366.706 198.895 366.001 200.52 365.297C203.771 363.887 205.611 358.995 206.041 350.62C206.471 342.244 206.449 336.895 205.974 334.57C205.499 332.246 203.864 330.625 201.069 329.706C198.274 328.788 196.413 328.795 195.487 329.73Z" fill="#565d6c" fill-rule="nonzero" opacity="1" stroke="none" vectornator:layerName="Courbe 27"/>
<path d="M588.355 330.878C586.971 333.675 586.526 338.561 587.021 345.537C587.515 352.513 589.392 356.459 592.653 357.376C594.283 357.835 595.913 358.293 597.543 358.751C597.754 353.633 597.965 348.515 598.177 343.397C598.599 333.161 597.414 327.816 594.621 327.362C591.827 326.909 589.739 328.081 588.355 330.878Z" fill="#9cada6" fill-rule="nonzero" opacity="1" stroke="none" vectornator:layerName="Courbe 28"/>
<path d="M672.137 341.692C670.749 343.559 670.329 354.493 670.878 374.494C671.427 394.496 673.565 405.186 677.293 406.566C679.156 407.256 681.02 407.946 682.884 408.636C683.071 397.703 683.258 386.77 683.444 375.837C683.818 353.971 682.374 342.347 679.112 340.965C675.85 339.583 673.525 339.826 672.137 341.692Z" fill="#9cada6" fill-rule="nonzero" opacity="1" stroke="none" vectornator:layerName="Courbe 29"/>
<path d="M153.695 348.047C152.773 349.912 152.571 357.356 153.091 370.38C153.61 383.403 154.568 389.912 155.964 389.906C157.359 389.9 159.216 388.962 161.534 387.092C163.853 385.221 164.986 378.238 164.936 366.143C164.885 354.048 163.23 347.542 159.969 346.626C156.709 345.709 154.618 346.183 153.695 348.047Z" fill="#565d6c" fill-rule="nonzero" opacity="1" stroke="none" vectornator:layerName="Courbe 30"/>
<path d="M546.74 391.337C546.403 422.041 548.33 437.85 552.521 438.763C554.616 439.22 556.711 439.676 558.806 440.132C558.745 425.479 558.684 410.825 558.623 396.172C558.5 366.864 556.573 351.055 552.842 348.745C550.976 347.59 549.111 346.435 547.245 345.279C547.077 360.632 546.908 375.984 546.74 391.337Z" fill="#9cada6" fill-rule="nonzero" opacity="1" stroke="none" vectornator:layerName="Courbe 31"/>
<path d="M239.557 355.638C236.31 357.977 234.747 373.568 234.868 402.41C234.928 416.831 234.988 431.252 235.049 445.673C237.139 444.967 239.23 444.26 241.32 443.554C245.501 442.141 247.529 426.548 247.405 396.775C247.342 381.889 247.28 367.003 247.218 352.117C246.753 352.119 246.288 352.121 245.822 352.123C244.892 352.127 242.803 353.298 239.557 355.638Z" fill="#224767" fill-rule="nonzero" opacity="1" stroke="none" vectornator:layerName="Courbe 32"/>
<path d="M111.874 359.387C110.948 360.321 110.757 370.324 111.302 389.395C111.575 398.931 111.847 408.466 112.12 418.002C113.745 417.297 115.37 416.592 116.995 415.888C120.246 414.479 122.072 406.097 122.473 390.744C122.874 375.391 122.835 366.087 122.356 362.832C121.877 359.578 120.242 357.957 117.451 357.968C114.66 357.98 112.801 358.453 111.874 359.387Z" fill="#565d6c" fill-rule="nonzero" opacity="1" stroke="none" vectornator:layerName="Courbe 33"/>
<path d="M566.304 397.535C565.954 424.983 566.249 439.869 567.189 442.191C568.129 444.513 570.228 445.9 573.486 446.351C575.116 446.577 576.745 446.803 578.374 447.029C578.549 433.304 578.724 419.58 578.899 405.856C579.25 378.408 577.326 363.297 573.127 360.523C571.028 359.136 568.929 357.749 566.83 356.362C566.655 370.087 566.479 383.811 566.304 397.535Z" fill="#9cada6" fill-rule="nonzero" opacity="1" stroke="none" vectornator:layerName="Courbe 34"/>
<path d="M218.676 368.286C215.429 370.625 213.862 385.286 213.975 412.267C214.031 425.758 214.088 439.248 214.144 452.739C216.235 452.032 218.325 451.326 220.416 450.619C224.596 449.206 226.629 434.544 226.512 406.632C226.453 392.676 226.395 378.72 226.337 364.765C225.872 364.767 225.406 364.768 224.941 364.77C224.011 364.774 221.922 365.946 218.676 368.286Z" fill="#565d6c" fill-rule="nonzero" opacity="1" stroke="none" vectornator:layerName="Courbe 35"/>
<path d="M586.593 410.011C586.707 437.457 588.629 451.87 592.356 453.25C594.22 453.94 596.083 454.63 597.947 455.32C598.358 442.293 598.768 429.266 599.179 416.238C600.001 390.183 598.079 375.77 593.416 372.998C591.084 371.613 588.752 370.227 586.42 368.841C586.478 382.564 586.535 396.287 586.593 410.011Z" fill="#9cada6" fill-rule="nonzero" opacity="1" stroke="none" vectornator:layerName="Courbe 36"/>
<path d="M693.911 375.793C692.983 376.263 692.548 383.475 692.606 397.431C692.665 411.387 694.324 418.823 697.584 419.74C699.214 420.198 700.844 420.656 702.475 421.115C702.911 414.135 703.347 407.155 703.783 400.175C704.655 386.216 704.622 378.54 703.686 377.148C702.75 375.756 701.119 375.065 698.793 375.075C696.467 375.085 694.84 375.324 693.911 375.793Z" fill="#8daca6" fill-rule="nonzero" opacity="1" stroke="none" vectornator:layerName="Courbe 37"/>
<path d="M197.794 380.933C194.548 383.273 192.978 397.236 193.085 422.821C193.138 435.614 193.192 448.407 193.245 461.2C195.567 460.027 197.888 458.854 200.209 457.682C204.851 455.336 207.12 441.603 207.015 416.483C206.909 391.362 206.158 378.572 204.761 378.113C203.363 377.654 201.041 378.594 197.794 380.933Z" fill="#565d6c" fill-rule="nonzero" opacity="1" stroke="none" vectornator:layerName="Courbe 38"/>
<path d="M607.567 419.692C607.674 445.278 609.824 458.76 614.017 460.138C616.113 460.827 618.209 461.516 620.306 462.205C620.254 449.877 620.202 437.55 620.151 425.222C620.048 400.567 617.898 387.085 613.701 384.776C611.603 383.622 609.505 382.468 607.407 381.314C607.46 394.106 607.514 406.899 607.567 419.692Z" fill="#9cada6" fill-rule="nonzero" opacity="1" stroke="none" vectornator:layerName="Courbe 39"/>
<path d="M177.611 393.578C173.899 395.92 172.324 408.72 172.887 431.977C173.168 443.606 173.449 455.235 173.731 466.864C175.821 466.157 177.912 465.451 180.002 464.744C184.183 463.331 186.233 452.856 186.151 433.317C186.069 413.779 185.553 401.686 184.603 397.038C184.129 394.714 183.654 392.39 183.179 390.066C181.323 391.237 179.467 392.408 177.611 393.578Z" fill="#565d6c" fill-rule="nonzero" opacity="1" stroke="none" vectornator:layerName="Courbe 40"/>
<path d="M713.534 395.948C712.619 399.673 713.56 402.228 716.357 403.612C719.154 404.996 721.712 404.752 724.03 402.882C726.348 401.011 727.504 399.146 727.496 397.285C727.488 395.424 726.783 393.799 725.382 392.409C723.981 391.019 721.884 390.33 719.093 390.342C716.302 390.354 714.449 392.222 713.534 395.948Z" fill="#8daca6" fill-rule="nonzero" opacity="1" stroke="none" vectornator:layerName="Courbe 41"/>
<path d="M93.2004 399.24C91.8107 400.642 91.3678 405.993 91.872 415.295C92.124 419.946 92.3761 424.597 92.6281 429.248C94.2524 428.311 95.8767 427.374 97.501 426.436C100.75 424.562 102.591 419.902 103.025 412.457C103.459 405.012 102.278 400.598 99.4805 399.214C96.6835 397.83 94.5902 397.839 93.2004 399.24Z" fill="#768195" fill-rule="nonzero" opacity="1" stroke="none" vectornator:layerName="Courbe 42"/>
<path d="M628.542 429.374C628.641 453.099 630.788 465.883 634.983 467.726C637.08 468.648 639.177 469.569 641.274 470.491C641.458 458.86 641.642 447.229 641.826 435.598C642.194 412.337 640.047 399.553 635.386 397.246C633.055 396.093 630.724 394.94 628.393 393.786C628.443 405.649 628.492 417.511 628.542 429.374Z" fill="#9cada6" fill-rule="nonzero" opacity="1" stroke="none" vectornator:layerName="Courbe 43"/>
<path d="M157.422 404.828C154.175 407.167 152.598 419.502 152.692 441.831C152.739 452.996 152.785 464.16 152.832 475.325C154.922 474.618 157.013 473.912 159.103 473.205C163.284 471.792 165.326 459.456 165.229 436.196C165.18 424.566 165.131 412.936 165.083 401.307C164.618 401.309 164.152 401.31 163.687 401.312C162.757 401.316 160.668 402.488 157.422 404.828Z" fill="#565d6c" fill-rule="nonzero" opacity="1" stroke="none" vectornator:layerName="Courbe 44"/>
<path d="M649.519 439.753C649.613 462.082 651.756 473.936 655.948 475.314C658.045 476.003 660.141 476.692 662.237 477.381C662.192 466.682 662.148 455.982 662.103 445.283C662.013 423.884 659.87 412.03 655.674 409.722C653.576 408.567 651.478 407.413 649.379 406.259C649.426 417.424 649.473 428.588 649.519 439.753Z" fill="#9cada6" fill-rule="nonzero" opacity="1" stroke="none" vectornator:layerName="Courbe 45"/>
<path d="M135.846 418.176C132.136 420.983 130.556 432.62 131.107 453.086C131.382 463.319 131.658 473.553 131.933 483.786C134.024 483.08 136.114 482.373 138.205 481.666C142.386 480.253 144.43 468.615 144.339 446.751C144.293 435.819 144.247 424.886 144.202 413.954C143.736 413.956 143.271 413.958 142.806 413.96C141.876 413.964 139.556 415.369 135.846 418.176Z" fill="#565d6c" fill-rule="nonzero" opacity="1" stroke="none" vectornator:layerName="Courbe 46"/>
<path d="M715.041 422.458C715.044 423.388 715.048 424.319 715.052 425.249C716.448 425.243 717.843 425.237 719.239 425.232C720.635 425.226 722.03 425.22 723.426 425.214C723.424 424.749 723.422 424.284 723.42 423.818C723.418 423.353 723.416 422.888 723.414 422.423C722.716 422.426 722.019 422.429 721.321 422.432C720.623 422.435 719.925 422.437 719.227 422.44C719.691 421.973 720.154 421.506 720.617 421.039C721.08 420.572 721.544 420.105 722.007 419.638C720.844 419.642 719.681 419.647 718.518 419.652C717.355 419.657 716.192 419.662 715.029 419.667C715.033 420.597 715.037 421.528 715.041 422.458Z" fill="#8daca6" fill-rule="nonzero" opacity="1" stroke="none" vectornator:layerName="Courbe 49"/>
<path d="M671.198 450.827C671.748 471.294 674.12 482.216 678.313 483.594C680.409 484.283 682.505 484.972 684.602 485.661C684.56 475.66 684.518 465.658 684.476 455.656C684.392 435.653 682.021 424.731 677.361 422.889C675.031 421.969 672.701 421.048 670.371 420.127C670.647 430.361 670.922 440.594 671.198 450.827Z" fill="#8daca6" fill-rule="nonzero" opacity="1" stroke="none" vectornator:layerName="Courbe 50"/>
<path d="M116.357 430.12C112.645 432.462 111.062 443.168 111.607 462.239C111.879 471.775 112.152 481.31 112.424 490.846C114.282 490.14 116.14 489.435 117.998 488.729C121.714 487.318 123.297 476.612 122.748 456.61C122.474 446.609 122.199 436.609 121.925 426.608C120.069 427.779 118.213 428.95 116.357 430.12Z" fill="#565d6c" fill-rule="nonzero" opacity="1" stroke="none" vectornator:layerName="Courbe 52"/>
<path d="M692.169 459.811C691.784 478.886 693.687 489.112 697.88 490.49C699.976 491.179 702.073 491.868 704.169 492.557C704.365 483.718 704.56 474.878 704.756 466.038C705.147 448.359 703.243 438.133 699.045 435.359C696.946 433.972 694.847 432.585 692.747 431.199C692.555 440.736 692.362 450.273 692.169 459.811Z" fill="#8daca6" fill-rule="nonzero" opacity="1" stroke="none" vectornator:layerName="Courbe 55"/>
<path d="M95.4759 442.768C91.768 446.04 89.95 456.282 90.022 473.494C90.058 482.1 90.094 490.707 90.13 499.313C92.4511 498.14 94.7722 496.967 97.0933 495.794C101.735 493.449 104.021 483.67 103.949 466.458C103.877 449.246 103.373 440.177 102.439 439.25C101.505 438.324 99.1838 439.496 95.4759 442.768Z" fill="#565d6c" fill-rule="nonzero" opacity="1" stroke="none" vectornator:layerName="Courbe 57"/>
<path d="M713.147 470.19C712.756 487.87 714.888 497.165 719.544 498.076C721.872 498.531 724.2 498.987 726.527 499.442C726.493 491.301 726.459 483.16 726.425 475.019C726.357 458.737 724.225 449.442 720.028 447.134C717.93 445.98 715.832 444.825 713.734 443.671C713.538 452.511 713.342 461.351 713.147 470.19Z" fill="#8daca6" fill-rule="nonzero" opacity="1" stroke="none" vectornator:layerName="Courbe 60"/>
<path d="M73.891 454.023C70.6444 456.363 69.2868 465.44 69.8181 481.255C70.0838 489.162 70.3495 497.069 70.6152 504.977C72.7066 504.503 74.798 504.029 76.8894 503.555C81.0723 502.607 82.8951 493.528 82.3579 476.318C81.8208 459.107 81.087 450.504 80.1566 450.508C79.2262 450.512 77.1377 451.684 73.891 454.023Z" fill="#768195" fill-rule="nonzero" opacity="1" stroke="none" vectornator:layerName="Courbe 62"/>
<path d="M733.424 479.875C733.49 495.691 735.852 504.288 740.51 505.664C742.838 506.352 745.167 507.04 747.496 507.728C747.466 500.517 747.436 493.307 747.406 486.096C747.345 471.675 745.681 463.076 742.413 460.299C739.145 457.521 736.813 456.135 735.418 456.141C734.72 456.144 734.022 456.147 733.324 456.15C733.357 464.058 733.391 471.966 733.424 479.875Z" fill="#8daca6" fill-rule="nonzero" opacity="1" stroke="none" vectornator:layerName="Courbe 66"/>
<path d="M54.3996 465.27C51.153 467.609 49.5598 475.99 49.6201 490.411C49.6503 497.621 49.6804 504.832 49.7106 512.042C51.801 511.336 53.8915 510.629 55.982 509.923C60.1629 508.509 62.2212 500.127 62.157 484.776C62.1249 477.1 62.0928 469.424 62.0607 461.749C61.5955 461.751 61.1303 461.753 60.6651 461.754C59.7347 461.758 57.6462 462.93 54.3996 465.27Z" fill="#768195" fill-rule="nonzero" opacity="1" stroke="none" vectornator:layerName="Courbe 68"/>
<path d="M755.803 491.644C755.859 505.134 758.216 512.568 762.874 513.944C765.203 514.632 767.532 515.32 769.861 516.008C769.607 510.892 769.353 505.776 769.099 500.66C768.591 490.427 767.867 484.15 766.926 481.828C765.986 479.506 763.883 477.189 760.617 474.876C758.984 473.72 757.351 472.564 755.718 471.408C755.746 478.153 755.774 484.898 755.803 491.644Z" fill="#8daca6" fill-rule="nonzero" opacity="1" stroke="none" vectornator:layerName="Courbe 73"/>
<path d="M34.2395 483.497C31.4659 487.695 30.0995 494.679 30.1403 504.448C30.1608 509.333 30.1812 514.217 30.2016 519.102C32.0595 518.396 33.9173 517.691 35.7752 516.985C39.4909 515.574 41.3225 508.588 41.27 496.028C41.2437 489.748 41.2174 483.468 41.1912 477.188C40.726 477.19 40.2608 477.191 39.7956 477.193C38.8652 477.197 37.0132 479.298 34.2395 483.497Z" fill="#768195" fill-rule="nonzero" opacity="1" stroke="none" vectornator:layerName="Courbe 74"/>
<path d="M443.817 642.279C443.912 665.073 445.822 676.928 449.548 677.843C451.41 678.3 453.273 678.757 455.136 679.215C455.557 668.746 455.979 658.277 456.4 647.808C457.243 626.871 456.03 615.013 452.762 612.236C449.494 609.458 447.163 608.072 445.767 608.078C445.069 608.081 444.371 608.084 443.674 608.087C443.721 619.484 443.769 630.881 443.817 642.279Z" fill="#8daca6" fill-rule="nonzero" opacity="1" stroke="none" vectornator:layerName="Courbe 90"/>
<path d="M343.922 616.18C340.675 618.52 339.094 629.924 339.18 650.392C339.223 660.626 339.266 670.861 339.308 681.095C341.4 680.621 343.491 680.147 345.583 679.673C349.766 678.725 352.049 668.481 352.432 648.941C352.816 629.401 352.77 618.469 352.295 616.145C351.82 613.821 351.117 612.661 350.187 612.665C349.257 612.669 347.168 613.84 343.922 616.18Z" fill="#2e6777" fill-rule="nonzero" opacity="1" stroke="none" vectornator:layerName="Courbe 91"/>
<path d="M464.096 652.661C463.717 673.131 465.623 684.056 469.816 685.434C471.912 686.123 474.008 686.812 476.105 687.501C476.297 677.963 476.49 668.426 476.683 658.888C477.068 639.814 475.162 628.889 470.963 626.116C468.864 624.729 466.765 623.342 464.666 621.955C464.476 632.19 464.286 642.426 464.096 652.661Z" fill="#8daca6" fill-rule="nonzero" opacity="1" stroke="none" vectornator:layerName="Courbe 92"/>
<path d="M323.744 630.22C320.036 633.492 318.453 644.199 318.994 662.339C319.264 671.41 319.535 680.48 319.805 689.55C321.663 688.845 323.521 688.139 325.379 687.433C329.095 686.022 331.148 676.477 331.539 658.798C331.931 641.118 331.656 631.118 330.716 628.796C330.246 627.635 329.776 626.474 329.306 625.312C327.452 626.948 325.598 628.584 323.744 630.22Z" fill="#2e6777" fill-rule="nonzero" opacity="1" stroke="none" vectornator:layerName="Courbe 93"/>
<path d="M486.469 663.034C486.08 681.179 487.983 691.173 492.177 693.016C494.275 693.938 496.372 694.859 498.469 695.781C498.666 687.174 498.862 678.567 499.059 669.96C499.452 652.746 497.549 642.752 493.351 639.978C491.252 638.591 489.153 637.204 487.053 635.818C486.859 644.89 486.664 653.962 486.469 663.034Z" fill="#9cada6" fill-rule="nonzero" opacity="1" stroke="none" vectornator:layerName="Courbe 94"/>
<path d="M301.476 644.967C298.696 647.77 297.572 657.079 298.104 672.894C298.369 680.801 298.635 688.708 298.901 696.616C300.992 696.142 303.084 695.668 305.175 695.194C309.358 694.246 311.414 685.398 311.344 668.651C311.274 651.904 310.307 643.07 308.442 642.147C306.577 641.224 304.255 642.165 301.476 644.967Z" fill="#2e6777" fill-rule="nonzero" opacity="1" stroke="none" vectornator:layerName="Courbe 95"/>
<path d="M507.45 674.111C507.053 690.395 508.951 699.226 513.143 700.604C515.239 701.293 517.336 701.982 519.432 702.671C519.633 695.227 519.835 687.783 520.036 680.339C520.439 665.451 518.542 656.62 514.343 653.846C512.244 652.459 510.145 651.073 508.046 649.686C507.847 657.828 507.648 665.97 507.45 674.111Z" fill="#9cada6" fill-rule="nonzero" opacity="1" stroke="none" vectornator:layerName="Courbe 97"/>
<path d="M282.685 656.909C279.439 659.248 277.845 667.629 277.906 682.05C277.936 689.26 277.966 696.471 277.996 703.681C280.088 703.207 282.179 702.733 284.27 702.259C288.453 701.311 290.512 692.929 290.445 677.113C290.412 669.204 290.379 661.296 290.346 653.388C289.881 653.39 289.416 653.391 288.951 653.393C288.02 653.397 285.932 654.569 282.685 656.909Z" fill="#2e6777" fill-rule="nonzero" opacity="1" stroke="none" vectornator:layerName="Courbe 98"/>
<path d="M528.427 684.491C528.021 698.449 529.912 705.884 534.103 706.797C536.198 707.253 538.294 707.71 540.389 708.166C540.596 702.118 540.804 696.069 541.011 690.021C541.426 677.924 539.534 670.488 535.335 667.715C533.236 666.328 531.137 664.941 529.038 663.554C528.834 670.533 528.631 677.512 528.427 684.491Z" fill="#9cada6" fill-rule="nonzero" opacity="1" stroke="none" vectornator:layerName="Courbe 99"/>
<path d="M260.417 671.656C257.172 674.46 255.574 681.678 255.623 693.308C255.647 699.123 255.672 704.937 255.696 710.752C257.787 710.278 259.879 709.805 261.97 709.331C266.153 708.383 268.451 701.628 268.864 689.065C269.276 676.503 268.783 669.76 267.383 668.835C265.984 667.911 263.662 668.851 260.417 671.656Z" fill="#2e6777" fill-rule="nonzero" opacity="1" stroke="none" vectornator:layerName="Courbe 100"/>
<path d="M90.9 748.68L91.3304 748.678L91.3358 749.969L90.9054 749.971L90.9 748.68Z" fill="#000000" fill-rule="nonzero" opacity="1" stroke="none" vectornator:layerName="Rectangle 1"/>
</g>
</g>
</g>
</svg>
